<svg id="Component_184_1" data-name="Component 184 – 1" xmlns="http://www.w3.org/2000/svg" xmlns:xlink="http://www.w3.org/1999/xlink" width="1231" height="319" viewBox="0 0 1231 319">
  <defs>
    <linearGradient id="linear-gradient" y1="1" x2="1" y2="1" gradientUnits="objectBoundingBox">
      <stop offset="0" stop-color="#ff8a33"/>
      <stop offset="1" stop-color="#ff312d"/>
    </linearGradient>
    <clipPath id="clip-path">
      <path id="Path_721" data-name="Path 721" d="M337.806,72,314.3,95.473,290.8,72.055,272,72.01V100.2l9.4,9.4v28.2l9.4,9.4-9.4,9.4v28.2l-9.4,9.4v28.2l37.6,0v-28.2l-9.4-9.4V109.626l14.1,14.05,14.09-14.071h.012v75.207l-9.4,9.4v28.2h37.6v-28.2l-9.4-9.389V156.609l-9.4-9.4,9.4-9.4V109.6l9.4-9.4V72Z" transform="translate(-272 -72.001)" fill="url(#linear-gradient)"/>
    </clipPath>
    <clipPath id="clip-path-3">
      <path id="Path_723" data-name="Path 723" d="M28.217,156.623H47.011l9.4,9.4v18.8h-28.2Zm0-47.014h28.2l0,18.806-9.4,9.4H28.217ZM0,72v28.207l9.422,9.4v28.21l9.4,9.4-9.4,9.4v28.17L0,194.231v28.184H65.811l9.4-9.38,0-56.412-9.4-9.4,9.4-9.4,0-56.415-9.4-9.4Z" transform="translate(0 -72.001)" fill="url(#linear-gradient)"/>
    </clipPath>
    <clipPath id="clip-path-4">
      <path id="Path_724" data-name="Path 724" d="M78.806,0,22.4.012,13,9.4v56.4l9.4,9.4-9.4,9.4v56.405l9.4,9.4H78.806l9.4-9.4V84.61l-9.4-9.4H41.2v9.4l9.4,9.4h18.8v18.8H31.8V37.6h37.6v0l9.4,9.4,9.4,0V9.4Z" transform="translate(-13)" fill="url(#linear-gradient)"/>
    </clipPath>
    <clipPath id="clip-path-5">
      <path id="Path_725" data-name="Path 725" d="M128.2,65.807V9.392L118.8,0H62.394L53,9.392V65.807l9.394,9.384L53,84.6v56.41l9.394,9.4H118.8l9.4-9.4V84.6l-9.4-9.413Zm-18.8,47H71.795L71.8,37.6l37.6,0Z" transform="translate(-53 -0.001)" fill="url(#linear-gradient)"/>
    </clipPath>
    <clipPath id="clip-path-6">
      <path id="Path_726" data-name="Path 726" d="M476.2,65.807V9.392L466.8,0h-56.41L401,9.392V65.807l9.394,9.384L401,84.6v56.41l9.394,9.4H466.8l9.4-9.4V84.6l-9.4-9.413Zm-18.8,47H419.795L419.8,37.6l37.6,0Z" transform="translate(-401 -0.001)" fill="url(#linear-gradient)"/>
    </clipPath>
    <clipPath id="clip-path-7">
      <path id="Path_727" data-name="Path 727" d="M458.8,109.6l37.606,0v75.207H458.795ZM449.394,72,440,81.392v56.415l9.394,9.384L440,156.6v56.408l9.394,9.4H505.8l9.406-9.4V156.6l-9.406-9.413,9.4-9.384V81.392L505.8,72Z" transform="translate(-440 -72.001)" fill="url(#linear-gradient)"/>
    </clipPath>
    <clipPath id="clip-path-8">
      <path id="Path_728" data-name="Path 728" d="M208.2,9.381V47h-9.4l-9.394-9.4H151.8V56.4l47.007,14.108,9.4,9.4,0,32.915,0,28.212-9.4,9.38H142.4l-9.4-9.38V103.42h9.4l9.4,9.4h37.6l0-23.512L142.4,75.2,133,65.8V9.381L142.4,0h56.4Z" transform="translate(-133 -0.001)" fill="url(#linear-gradient)"/>
    </clipPath>
    <clipPath id="clip-path-9">
      <path id="Path_729" data-name="Path 729" d="M278.806,47.005l-9.4-9.4H241.2v28.2h9.4l9.406-9.4h9.4v37.6H260l-9.4-9.4h-9.4v28.2l28.2,0,9.4-9.4h9.4v47H213v-28.2l9.4-9.4v-28.2l9.4-9.4-9.4-9.4V37.6l-9.389-9.4V0h75.2v47Z" transform="translate(-213 -0.001)" fill="url(#linear-gradient)"/>
    </clipPath>
    <clipPath id="clip-path-10">
      <path id="Path_730" data-name="Path 730" d="M232.012,72v28.2l9.389,9.4v28.2l9.4,9.4-9.4,9.4v28.2l-9.4,9.4v28.2h75.207v-47h-9.4l-9.4,9.4-28.2,0v-28.2h9.4l9.4,9.4h9.4V128.406H279l-9.406,9.4h-9.4V109.6h28.2l9.4,9.4h9.4V72Z" transform="translate(-232 -72.001)" fill="url(#linear-gradient)"/>
    </clipPath>
    <clipPath id="clip-path-11">
      <path id="Path_731" data-name="Path 731" d="M356.012,72v28.2l9.389,9.4v28.2l9.4,9.4-9.4,9.4v28.2l-9.4,9.4v28.2h75.207v-47h-9.4l-9.4,9.4-28.2,0v-28.2h9.4l9.4,9.4h9.4V128.406H403l-9.406,9.4h-9.4V109.6h28.2l9.4,9.4h9.4V72Z" transform="translate(-356 -72.001)" fill="url(#linear-gradient)"/>
    </clipPath>
    <clipPath id="clip-path-12">
      <path id="Path_732" data-name="Path 732" d="M318.806,47.005l-9.4-9.4H281.2v28.2h9.4l9.406-9.4h9.4v37.6H300l-9.4-9.4h-9.4v28.2l28.2,0,9.4-9.4h9.4v47H253v-28.2l9.4-9.4v-28.2l9.4-9.4-9.4-9.4V37.6l-9.389-9.4V0h75.2v47Z" transform="translate(-253 -0.001)" fill="url(#linear-gradient)"/>
    </clipPath>
    <clipPath id="clip-path-13">
      <path id="Path_733" data-name="Path 733" d="M492,69.6l-9.117,9.114-.284.287h-9.4l-.284-.287L463.8,69.6V41.4L454.4,32,445,41.4V97.809l9.4,9.4h47l9.4-9.4V41.4l-9.4-9.4L492,41.4Z" transform="translate(-445 -32.001)" fill="url(#linear-gradient)"/>
    </clipPath>
    <clipPath id="clip-path-14">
      <path id="Path_734" data-name="Path 734" d="M461,0V28.2l9.4,9.408v28.2l9.4,9.4,9.4-9.4V37.6l9.4-9.4V0Z" transform="translate(-460.999 -0.001)" fill="url(#linear-gradient)"/>
    </clipPath>
    <clipPath id="clip-path-15">
      <path id="Path_735" data-name="Path 735" d="M469.2,37.609l9.4-9.408V0H441V28.2l9.4,9.4v28.2l9.4,9.4,9.4-9.4Z" transform="translate(-441 -0.001)" fill="url(#linear-gradient)"/>
    </clipPath>
    <clipPath id="clip-path-16">
      <path id="Path_736" data-name="Path 736" d="M40,72v28.2l9.4,9.4v28.2l9.4,9.4-9.4,9.4v28.2l-9.4,9.4v28.2h75.2v-37.6h-9.4l-9.4,9.4H77.6l-9.4-9.4v-28.2l-9.4-9.4,9.4-9.4v-28.2l9.4-9.406V72Z" transform="translate(-40 -72.001)" fill="url(#linear-gradient)"/>
    </clipPath>
    <clipPath id="clip-path-17">
      <path id="Path_737" data-name="Path 737" d="M117.6,109.6H127v28.2h-9.4ZM94.1,72v28.2l9.4,9.4h0l-5.852,31.169,6.5,6.444-9.41,9.387L89.4,184.812l-9.4,9.4v28.2h37.6v-28.2l-9.4-9.4,4.7-28.2h18.8l4.7,28.2-9.4,9.4,0,28.2h37.611l-.007-28.2-9.4-9.4-5.257-28.2-9.413-9.389,6.458-6.463-8.357-44.407L135.425,79.3,134.053,72Z" transform="translate(-80 -72.001)" fill="url(#linear-gradient)"/>
    </clipPath>
    <clipPath id="clip-path-18">
      <path id="Path_738" data-name="Path 738" d="M424.2,109.607h28.2l0,9.4,0,9.389L443,137.809h-18.8Zm-28.2-9.4,9.4,9.4v28.2l9.4,9.4-9.4,9.4v28.2l-9.4,9.4v28.2l37.6,0v-28.2l-9.4-9.4v-28.2H443l9.4,9.4V222.4l28.2.012v-28.2l-9.4-9.4v-28.2l-9.4-9.4,9.4-9.4V81.4l-9.4-9.4L396,72Z" transform="translate(-396 -72.001)" fill="url(#linear-gradient)"/>
    </clipPath>
    <clipPath id="clip-path-19">
      <path id="Path_739" data-name="Path 739" d="M508.2,109.607h28.2l0,9.4,0,9.389L527,137.809H508.2Zm-28.2-9.4,9.4,9.4v28.2l9.4,9.4-9.4,9.4v28.2l-9.4,9.4v28.2l37.6,0v-28.2l-9.4-9.4v-28.2H527l9.4,9.4V222.4l28.2.012v-28.2l-9.4-9.4v-28.2l-9.4-9.4,9.4-9.4V81.4l-9.4-9.4L480,72Z" transform="translate(-480 -72.001)" fill="url(#linear-gradient)"/>
    </clipPath>
    <clipPath id="clip-path-20">
      <path id="Path_740" data-name="Path 740" d="M344.2,109.607h28.2l0,9.4,0,9.389L363,137.809H344.2Zm-28.2-9.4,9.4,9.4v28.2l9.4,9.4-9.4,9.4v28.2l-9.4,9.4v28.2l37.6,0v-28.2l-9.4-9.4v-28.2h28.2l18.8-18.8V81.4l-9.4-9.4L316,72Z" transform="translate(-316 -72.001)" fill="url(#linear-gradient)"/>
    </clipPath>
    <clipPath id="clip-path-21">
      <path id="Path_741" data-name="Path 741" d="M229.405,84.611l18.8-18.8V9.4l-9.4-9.4L173,0v28.2l9.4,9.4v28.2l9.4,9.4-9.4,9.4v28.2l-9.4,9.4v28.2l37.6,0v-28.2l-9.4-9.4v-28.2M229.4,56.4,220,65.809H201.2v-28.2h28.2l0,9.4Z" transform="translate(-173 -0.001)" fill="url(#linear-gradient)"/>
    </clipPath>
    <clipPath id="clip-path-22">
      <path id="Path_742" data-name="Path 742" d="M158.809,0H93V28.208l9.422,9.4V65.817l9.4,9.4-9.4,9.4v28.17L93,122.231v28.184h65.808l9.4-9.38V9.4Zm-9.4,112.827H121.219V37.609h28.193Z" transform="translate(-93 -0.001)" fill="url(#linear-gradient)"/>
    </clipPath>
    <clipPath id="clip-path-23">
      <path id="Path_743" data-name="Path 743" d="M358.809,0H293V28.208l9.422,9.4V65.817l9.4,9.4-9.4,9.4v28.17L293,122.231v28.184h65.809l9.4-9.38V9.4Zm-9.4,112.827H321.219V37.609h28.193Z" transform="translate(-293 -0.001)" fill="url(#linear-gradient)"/>
    </clipPath>
    <clipPath id="clip-path-24">
      <path id="Path_744" data-name="Path 744" d="M164,72v28.2l9.4,9.4v28.2l9.4,9.4-9.4,9.4v28.2l-9.4,9.4v28.2l37.6,0v-28.2l-9.4-9.4v-28.2H211l9.4,9.4V222.4l28.2.012v-28.2l-9.4-9.4v-28.2l-9.4-9.4,9.4-9.4,0-28.2,9.4-9.4V72H220.4v18.8L220.4,128.4,211,137.809H192.2v-28.2l9.4-9.4V72Z" transform="translate(-164 -72.001)" fill="url(#linear-gradient)"/>
    </clipPath>
    <clipPath id="clip-path-25">
      <path id="Path_745" data-name="Path 745" d="M413.4,65.809H385.205l0-28.2,9.4-9.4V0H357v28.2l9.4,9.4v28.2l9.4,9.4,14.1,9.4,0,28.2-9.4,9.4V150.4l37.6.012v-28.2l-9.4-9.4,0-28.2,14.1-9.4,9.4-9.4v-28.2l9.4-9.4V0h-37.6v28.2l9.4,9.4" transform="translate(-357 -0.001)" fill="url(#linear-gradient)"/>
    </clipPath>
    <clipPath id="clip-path-26">
      <path id="Path_746" data-name="Path 746" d="M133.4,72,124,81.389V137.8l9.4,9.384L124,156.6v56.408l9.4,9.4H189.8l9.4-9.4V175.405l-9.4,0-9.4,9.4-37.608,0,0-75.216,37.606,0v0l9.4,9.4h9.4V81.389L189.8,72Z" transform="translate(-124.001 -71.998)" fill="url(#linear-gradient)"/>
    </clipPath>
    <clipPath id="clip-path-27">
      <path id="Path_747" data-name="Path 747" d="M132,88l37.606,0v0Z" transform="translate(-132.001 -87.997)" fill="url(#linear-gradient)"/>
    </clipPath>
    <clipPath id="clip-path-28">
      <path id="Path_748" data-name="Path 748" d="M494.4,85.6h18.8l9.4-9.4V57.4L513.2,48H494.4L485,57.4V76.2Z" transform="translate(-485 -48.001)" fill="url(#linear-gradient)"/>
    </clipPath>
    <clipPath id="clip-path-29">
      <path id="Path_749" data-name="Path 749" d="M485,103.411v-9.4l9.4-9.4v-47L485,28.2V0h37.6V28.2l-9.4,9.4v47l9.4,9.4v9.4Z" transform="translate(-485 -0.001)" fill="url(#linear-gradient)"/>
    </clipPath>
    <filter id="CAIS_NO_ROCK" x="312.5" y="108.5" width="609" height="109" filterUnits="userSpaceOnUse">
      <feOffset dx="1" dy="3" input="SourceAlpha"/>
      <feGaussianBlur stdDeviation="1.5" result="blur"/>
      <feFlood flood-opacity="0.161"/>
      <feComposite operator="in" in2="blur"/>
      <feComposite in="SourceGraphic"/>
    </filter>
  </defs>
  <g id="Group_3279" data-name="Group 3279" transform="translate(11)">
    <g id="Group_3005" data-name="Group 3005" transform="translate(637.292 168.306)">
      <g id="Group_3004" data-name="Group 3004" clip-path="url(#clip-path)">
        <rect id="Rectangle_1363" data-name="Rectangle 1363" width="85" height="151" transform="translate(-0.546 -0.14)" fill="url(#linear-gradient)"/>
      </g>
    </g>
    <g id="Group_3007" data-name="Group 3007" transform="translate(637.292 168.306)">
      <g id="Group_3006" data-name="Group 3006" clip-path="url(#clip-path)">
        <rect id="Rectangle_1364" data-name="Rectangle 1364" width="85" height="151" transform="translate(-0.546 -0.14)" fill="url(#linear-gradient)"/>
      </g>
    </g>
    <g id="Group_3009" data-name="Group 3009" transform="translate(0 168.306)">
      <g id="Group_3008" data-name="Group 3008" clip-path="url(#clip-path-3)">
        <rect id="Rectangle_1365" data-name="Rectangle 1365" width="76" height="151" transform="translate(-0.287 -0.14)" fill="url(#linear-gradient)"/>
      </g>
    </g>
    <g id="Group_3011" data-name="Group 3011" transform="translate(30.553)">
      <g id="Group_3010" data-name="Group 3010" clip-path="url(#clip-path-4)">
        <rect id="Rectangle_1366" data-name="Rectangle 1366" width="74" height="151" transform="translate(0.16 0.078)" fill="url(#linear-gradient)"/>
      </g>
    </g>
    <g id="Group_3013" data-name="Group 3013" transform="translate(124.562 0.002)">
      <g id="Group_3012" data-name="Group 3012" clip-path="url(#clip-path-5)">
        <rect id="Rectangle_1367" data-name="Rectangle 1367" width="76" height="151" transform="translate(-0.849 0.076)" fill="url(#linear-gradient)"/>
      </g>
    </g>
    <g id="Group_3015" data-name="Group 3015" transform="translate(939.56 0.002)">
      <g id="Group_3014" data-name="Group 3014" clip-path="url(#clip-path-6)">
        <rect id="Rectangle_1368" data-name="Rectangle 1368" width="74" height="151" transform="translate(0.275 0.076)" fill="url(#linear-gradient)"/>
      </g>
    </g>
    <g id="Group_3017" data-name="Group 3017" transform="translate(1030.623 168.306)">
      <g id="Group_3016" data-name="Group 3016" clip-path="url(#clip-path-7)">
        <rect id="Rectangle_1369" data-name="Rectangle 1369" width="76" height="151" transform="translate(-0.383 -0.14)" fill="url(#linear-gradient)"/>
      </g>
    </g>
    <g id="Group_3019" data-name="Group 3019" transform="translate(311.625 0.002)">
      <g id="Group_3018" data-name="Group 3018" clip-path="url(#clip-path-8)">
        <rect id="Rectangle_1370" data-name="Rectangle 1370" width="75" height="151" transform="translate(0.134 0.076)" fill="url(#linear-gradient)"/>
      </g>
    </g>
    <g id="Group_3021" data-name="Group 3021" transform="translate(499.068 0.002)">
      <g id="Group_3020" data-name="Group 3020" clip-path="url(#clip-path-9)">
        <rect id="Rectangle_1371" data-name="Rectangle 1371" width="76" height="151" transform="translate(-0.884 0.076)" fill="url(#linear-gradient)"/>
      </g>
    </g>
    <g id="Group_3023" data-name="Group 3023" transform="translate(543.586 168.306)">
      <g id="Group_3022" data-name="Group 3022" clip-path="url(#clip-path-10)">
        <rect id="Rectangle_1372" data-name="Rectangle 1372" width="76" height="151" transform="translate(-0.538 -0.14)" fill="url(#linear-gradient)"/>
      </g>
    </g>
    <g id="Group_3025" data-name="Group 3025" transform="translate(834.123 168.306)">
      <g id="Group_3024" data-name="Group 3024" clip-path="url(#clip-path-11)">
        <rect id="Rectangle_1373" data-name="Rectangle 1373" width="75" height="151" transform="translate(0.035 -0.14)" fill="url(#linear-gradient)"/>
      </g>
    </g>
    <g id="Group_3027" data-name="Group 3027" transform="translate(592.79 0.002)">
      <g id="Group_3026" data-name="Group 3026" clip-path="url(#clip-path-12)">
        <rect id="Rectangle_1374" data-name="Rectangle 1374" width="75" height="151" transform="translate(0.107 0.076)" fill="url(#linear-gradient)"/>
      </g>
    </g>
    <g id="Group_3029" data-name="Group 3029" transform="translate(1042.375 74.929)">
      <g id="Group_3028" data-name="Group 3028" clip-path="url(#clip-path-13)">
        <rect id="Rectangle_1375" data-name="Rectangle 1375" width="66" height="76" transform="translate(-0.134 -0.131)" fill="url(#linear-gradient)"/>
      </g>
    </g>
    <g id="Group_3031" data-name="Group 3031" transform="translate(1079.976 0.002)">
      <g id="Group_3030" data-name="Group 3030" clip-path="url(#clip-path-14)">
        <rect id="Rectangle_1376" data-name="Rectangle 1376" width="38" height="75" transform="translate(0.264 0.076)" fill="url(#linear-gradient)"/>
      </g>
    </g>
    <g id="Group_3033" data-name="Group 3033" transform="translate(1032.974 0.002)">
      <g id="Group_3032" data-name="Group 3032" clip-path="url(#clip-path-15)">
        <rect id="Rectangle_1377" data-name="Rectangle 1377" width="38" height="75" transform="translate(-0.733 0.076)" fill="url(#linear-gradient)"/>
      </g>
    </g>
    <g id="Group_3035" data-name="Group 3035" transform="translate(94.009 168.306)">
      <g id="Group_3034" data-name="Group 3034" clip-path="url(#clip-path-16)">
        <rect id="Rectangle_1378" data-name="Rectangle 1378" width="75" height="151" transform="translate(0.704 -0.14)" fill="url(#linear-gradient)"/>
      </g>
    </g>
    <g id="Group_3037" data-name="Group 3037" transform="translate(187.439 168.306)">
      <g id="Group_3036" data-name="Group 3036" clip-path="url(#clip-path-17)">
        <rect id="Rectangle_1379" data-name="Rectangle 1379" width="85" height="151" transform="translate(-0.305 -0.14)" fill="url(#linear-gradient)"/>
      </g>
    </g>
    <g id="Group_3039" data-name="Group 3039" transform="translate(927.822 168.306)">
      <g id="Group_3038" data-name="Group 3038" clip-path="url(#clip-path-18)">
        <rect id="Rectangle_1380" data-name="Rectangle 1380" width="85" height="151" transform="translate(0.026 -0.14)" fill="url(#linear-gradient)"/>
      </g>
    </g>
    <g id="Group_3041" data-name="Group 3041" transform="translate(1124.632 168.306)">
      <g id="Group_3040" data-name="Group 3040" clip-path="url(#clip-path-19)">
        <rect id="Rectangle_1381" data-name="Rectangle 1381" width="84" height="151" transform="translate(0.608 -0.14)" fill="url(#linear-gradient)"/>
      </g>
    </g>
    <g id="Group_3043" data-name="Group 3043" transform="translate(740.402 168.306)">
      <g id="Group_3042" data-name="Group 3042" clip-path="url(#clip-path-20)">
        <rect id="Rectangle_1382" data-name="Rectangle 1382" width="75" height="151" transform="translate(0.044 -0.14)" fill="url(#linear-gradient)"/>
      </g>
    </g>
    <g id="Group_3045" data-name="Group 3045" transform="translate(405.346 0.002)">
      <g id="Group_3044" data-name="Group 3044" clip-path="url(#clip-path-21)">
        <rect id="Rectangle_1383" data-name="Rectangle 1383" width="76" height="151" transform="translate(0.125 0.076)" fill="url(#linear-gradient)"/>
      </g>
    </g>
    <g id="Group_3047" data-name="Group 3047" transform="translate(217.903 0.002)">
      <g id="Group_3046" data-name="Group 3046" clip-path="url(#clip-path-22)">
        <rect id="Rectangle_1384" data-name="Rectangle 1384" width="75" height="151" transform="translate(0.143 0.076)" fill="url(#linear-gradient)"/>
      </g>
    </g>
    <g id="Group_3049" data-name="Group 3049" transform="translate(686.512 0.002)">
      <g id="Group_3048" data-name="Group 3048" clip-path="url(#clip-path-23)">
        <rect id="Rectangle_1385" data-name="Rectangle 1385" width="75" height="151" transform="translate(0.099 0.076)" fill="url(#linear-gradient)"/>
      </g>
    </g>
    <g id="Group_3051" data-name="Group 3051" transform="translate(384.249 168.306)">
      <g id="Group_3050" data-name="Group 3050" clip-path="url(#clip-path-24)">
        <rect id="Rectangle_1386" data-name="Rectangle 1386" width="86" height="151" transform="translate(-0.723 -0.14)" fill="url(#linear-gradient)"/>
      </g>
    </g>
    <g id="Group_3053" data-name="Group 3053" transform="translate(836.445 0.002)">
      <g id="Group_3052" data-name="Group 3052" clip-path="url(#clip-path-25)">
        <rect id="Rectangle_1387" data-name="Rectangle 1387" width="85" height="151" transform="translate(-0.315 0.076)" fill="url(#linear-gradient)"/>
      </g>
    </g>
    <g id="Group_3055" data-name="Group 3055" transform="translate(290.54 168.299)">
      <g id="Group_3054" data-name="Group 3054" clip-path="url(#clip-path-26)">
        <rect id="Rectangle_1388" data-name="Rectangle 1388" width="74" height="151" transform="translate(0.283 -0.133)" fill="url(#linear-gradient)"/>
      </g>
    </g>
    <g id="Group_3057" data-name="Group 3057" transform="translate(309.314 206.222)">
      <g id="Group_3056" data-name="Group 3056" clip-path="url(#clip-path-27)">
        <rect id="Rectangle_1389" data-name="Rectangle 1389" width="38" transform="translate(0.482 -0.735)" fill="url(#linear-gradient)"/>
      </g>
    </g>
    <g id="Group_3059" data-name="Group 3059" transform="translate(1136.383 112.448)">
      <g id="Group_3058" data-name="Group 3058" clip-path="url(#clip-path-28)">
        <rect id="Rectangle_1390" data-name="Rectangle 1390" width="36" height="38" transform="translate(0.857 0.265)" fill="url(#linear-gradient)"/>
      </g>
    </g>
    <g id="Group_3061" data-name="Group 3061" transform="translate(1136.383 0.002)">
      <g id="Group_3060" data-name="Group 3060" clip-path="url(#clip-path-29)">
        <rect id="Rectangle_1391" data-name="Rectangle 1391" width="36" height="103" transform="translate(0.857 0.076)" fill="url(#linear-gradient)"/>
      </g>
    </g>
  </g>
  <g transform="matrix(1, 0, 0, 1, 0, 0)" filter="url(#CAIS_NO_ROCK)">
    <text id="CAIS_NO_ROCK-2" data-name="CAIS NO ROCK" transform="translate(616 193)" fill="#ffcb8f" font-size="100" font-family="UbuntuMono-Bold, Ubuntu Mono" font-weight="700"><tspan x="-300" y="0">CAIS NO ROCK</tspan></text>
  </g>
  <g id="Rectangle_1639" data-name="Rectangle 1639" fill="#fff" stroke="#707070" stroke-width="1" opacity="0">
    <rect width="1231" height="319" stroke="none"/>
    <rect x="0.5" y="0.5" width="1230" height="318" fill="none"/>
  </g>
</svg>
