<svg id="Component_191_1" data-name="Component 191 – 1" xmlns="http://www.w3.org/2000/svg" xmlns:xlink="http://www.w3.org/1999/xlink" width="1231" height="319" viewBox="0 0 1231 319">
  <defs>
    <linearGradient id="linear-gradient" y1="1" x2="1" y2="1" gradientUnits="objectBoundingBox">
      <stop offset="0" stop-color="#ff8a33"/>
      <stop offset="1" stop-color="#ff312d"/>
    </linearGradient>
    <clipPath id="clip-path">
      <path id="Path_750" data-name="Path 750" d="M208,0V28.125l9.375,9.375V65.625L226.75,75l-9.375,9.375V112.5L208,121.875V150h37.5V121.875l-9.375-9.375V84.375L226.75,75l9.375-9.375V37.5l9.375-9.375V0Z" transform="translate(-208)" fill="url(#linear-gradient)"/>
    </clipPath>
    <clipPath id="clip-path-2">
      <path id="Path_751" data-name="Path 751" d="M84,0V56.25h9.375l9.375-9.375V37.5h9.375V65.625L121.5,75l-9.375,9.375V112.5l-9.375,9.375V150h37.5V121.875l-9.375-9.375V84.375L121.5,75l9.375-9.375V37.5h9.375v9.375l9.375,9.375H159V0Z" transform="translate(-84)" fill="url(#linear-gradient)"/>
    </clipPath>
    <clipPath id="clip-path-3">
      <path id="Path_752" data-name="Path 752" d="M232,0V56.25h9.375l9.375-9.375V37.5h9.375V65.625L269.5,75l-9.375,9.375V112.5l-9.375,9.375V150h37.5V121.875l-9.375-9.375V84.375L269.5,75l9.375-9.375V37.5h9.375v9.375l9.375,9.375H307V0Z" transform="translate(-232)" fill="url(#linear-gradient)"/>
    </clipPath>
    <clipPath id="clip-path-4">
      <path id="Path_753" data-name="Path 753" d="M65.625,0,42.187,23.407,18.75.054,0,.009V28.125L9.375,37.5V65.625L18.75,75,9.375,84.375V112.5L0,121.875V150l37.5,0V121.875L28.125,112.5V37.521L42.187,51.532,56.238,37.5h.012v75l-9.373,9.373V150h37.5V121.875L75,112.511l0-28.137L65.625,75,75,65.625V37.5l9.375-9.37V0Z" fill="url(#linear-gradient)"/>
    </clipPath>
    <clipPath id="clip-path-5">
      <path id="Path_754" data-name="Path 754" d="M229.625,0,206.187,23.407,182.75.054,164,.009V28.125l9.375,9.375V65.625L182.75,75l-9.375,9.375V112.5L164,121.875V150l37.5,0V121.875l-9.375-9.375V37.521l14.062,14.011L220.238,37.5h.012v75l-9.373,9.373V150h37.5V121.875L239,112.511V84.375L229.625,75,239,65.625V37.5l9.375-9.37V0Z" transform="translate(-164)" fill="url(#linear-gradient)"/>
    </clipPath>
    <clipPath id="clip-path-6">
      <path id="Path_755" data-name="Path 755" d="M290.75,37.5l37.5,0v75H290.743ZM281.37,0,272,9.366V65.625l9.37,9.359L272,84.37v56.252L281.37,150h56.252L347,140.622V84.37l-9.377-9.387L347,65.625V9.366L337.622,0Z" transform="translate(-272)" fill="url(#linear-gradient)"/>
    </clipPath>
    <clipPath id="clip-path-7">
      <path id="Path_756" data-name="Path 756" d="M44.012,0V28.127L53.375,37.5V65.625L62.75,75l-9.375,9.373V112.5L44,121.875V150h75V103.125h-9.375l-9.377,9.375-28.123,0V84.375H81.5l9.375,9.377h9.375V56.25H90.875L81.5,65.625h-9.37V37.5H100.25l9.375,9.375H119V0Z" transform="translate(-44)" fill="url(#linear-gradient)"/>
    </clipPath>
    <clipPath id="clip-path-8">
      <path id="Path_757" data-name="Path 757" d="M157.5,37.5h9.377V65.623H157.5ZM134.055,0l0,28.125,9.375,9.375h0L137.6,68.583l6.49,6.427L134.7,84.37l-5.325,28.13L120,121.875V150h37.5V121.875l-9.375-9.375,4.687-28.125h18.748l4.687,28.125-9.373,9.375,0,28.125h37.507l-.007-28.125-9.375-9.375-5.241-28.125-9.387-9.363,6.441-6.445-8.334-44.285-3.2-17.006L173.9,0Z" transform="translate(-120)" fill="url(#linear-gradient)"/>
    </clipPath>
    <filter id="CAIS_NO_ROCK" x="311.749" y="155.5" width="609" height="109" filterUnits="userSpaceOnUse">
      <feOffset dx="1" dy="-4" input="SourceAlpha"/>
      <feGaussianBlur stdDeviation="1.5" result="blur"/>
      <feFlood flood-opacity="0.161"/>
      <feComposite operator="in" in2="blur"/>
      <feComposite in="SourceGraphic"/>
    </filter>
  </defs>
  <g id="Rectangle_1643" data-name="Rectangle 1643" fill="#fff" stroke="#707070" stroke-width="1" opacity="0">
    <rect width="1231" height="319" stroke="none"/>
    <rect x="0.5" y="0.5" width="1230" height="318" fill="none"/>
  </g>
  <g id="Group_3284" data-name="Group 3284" transform="translate(13355.249 -6097)">
    <g id="Group_3283" data-name="Group 3283" transform="translate(-13096.249 6152)">
      <g id="Group_3064" data-name="Group 3064" transform="translate(487.499)">
        <g id="Group_3063" data-name="Group 3063" clip-path="url(#clip-path)">
          <rect id="Rectangle_1392" data-name="Rectangle 1392" width="38" height="150" transform="translate(-0.499 0)" fill="url(#linear-gradient)"/>
        </g>
      </g>
      <g id="Group_3066" data-name="Group 3066" transform="translate(196.875)">
        <g id="Group_3065" data-name="Group 3065" clip-path="url(#clip-path-2)">
          <rect id="Rectangle_1393" data-name="Rectangle 1393" width="76" height="150" transform="translate(-0.875 0)" fill="url(#linear-gradient)"/>
        </g>
      </g>
      <g id="Group_3068" data-name="Group 3068" transform="translate(543.749)">
        <g id="Group_3067" data-name="Group 3067" clip-path="url(#clip-path-3)">
          <rect id="Rectangle_1394" data-name="Rectangle 1394" width="74" height="150" transform="translate(0.251 0)" fill="url(#linear-gradient)"/>
        </g>
      </g>
      <g id="Group_3070" data-name="Group 3070">
        <g id="Group_3069" data-name="Group 3069" clip-path="url(#clip-path-4)">
          <rect id="Rectangle_1395" data-name="Rectangle 1395" width="85" height="150" transform="translate(0 0)" fill="url(#linear-gradient)"/>
        </g>
      </g>
      <g id="Group_3072" data-name="Group 3072" transform="translate(384.374)">
        <g id="Group_3071" data-name="Group 3071" clip-path="url(#clip-path-5)">
          <rect id="Rectangle_1396" data-name="Rectangle 1396" width="83" height="150" transform="translate(0.626 0)" fill="url(#linear-gradient)"/>
        </g>
      </g>
      <g id="Group_3074" data-name="Group 3074" transform="translate(637.499)">
        <g id="Group_3073" data-name="Group 3073" clip-path="url(#clip-path-6)">
          <rect id="Rectangle_1397" data-name="Rectangle 1397" width="74" height="150" transform="translate(0.501 0)" fill="url(#linear-gradient)"/>
        </g>
      </g>
      <g id="Group_3076" data-name="Group 3076" transform="translate(103.125)">
        <g id="Group_3075" data-name="Group 3075" clip-path="url(#clip-path-7)">
          <rect id="Rectangle_1398" data-name="Rectangle 1398" width="75" height="150" transform="translate(-0.125 0)" fill="url(#linear-gradient)"/>
        </g>
      </g>
      <g id="Group_3078" data-name="Group 3078" transform="translate(281.249)">
        <g id="Group_3077" data-name="Group 3077" clip-path="url(#clip-path-8)">
          <rect id="Rectangle_1399" data-name="Rectangle 1399" width="85" height="150" transform="translate(-0.249 0)" fill="url(#linear-gradient)"/>
        </g>
      </g>
    </g>
    <g transform="matrix(1, 0, 0, 1, -13355.25, 6097)" filter="url(#CAIS_NO_ROCK)">
      <text id="CAIS_NO_ROCK-2" data-name="CAIS NO ROCK" transform="translate(615.25 247)" fill="#ffcb8f" font-size="100" font-family="UbuntuMono-Bold, Ubuntu Mono" font-weight="700"><tspan x="-300" y="0">CAIS NO ROCK</tspan></text>
    </g>
  </g>
</svg>
