<svg id="PORUMANOITEPARATODES" xmlns="http://www.w3.org/2000/svg" xmlns:xlink="http://www.w3.org/1999/xlink" width="1231" height="319" viewBox="0 0 1231 319">
  <defs>
    <linearGradient id="linear-gradient" y1="1" x2="1" y2="1" gradientUnits="objectBoundingBox">
      <stop offset="0" stop-color="#ff8a33"/>
      <stop offset="1" stop-color="#ff312d"/>
    </linearGradient>
    <clipPath id="clip-path">
      <path id="Path_654" data-name="Path 654" d="M250.748,37.5l37.5,0v75h-37.5ZM241.368,0,232,9.366V65.625l9.368,9.359L232,84.37v56.252L241.368,150H297.62l9.38-9.377V84.37l-9.38-9.387L307,65.625V9.366L297.62,0Z" transform="translate(-232)" fill="url(#linear-gradient)"/>
    </clipPath>
    <clipPath id="clip-path-2">
      <path id="Path_655" data-name="Path 655" d="M361.375,0,352,9.354V65.618L361.377,75,408.25,89.067l0,23.444h-37.5l-9.375-9.377H352v37.509L361.375,150h56.25L427,140.643V112.511l0-32.824-9.373-9.377L370.752,56.24V37.488h37.5l9.37,9.375H427V9.354L417.625,0Z" transform="translate(-352)" fill="url(#linear-gradient)"/>
    </clipPath>
    <clipPath id="clip-path-3">
      <path id="Path_656" data-name="Path 656" d="M312.012,0V28.127l9.363,9.373V65.625L330.75,75l-9.375,9.373V112.5L312,121.875V150h75V103.125h-9.375L368.25,112.5l-28.125,0V84.375H349.5l9.375,9.377h9.375V56.25h-9.375l-9.38,9.375h-9.37V37.5H368.25l9.375,9.375H387V0Z" transform="translate(-312)" fill="url(#linear-gradient)"/>
    </clipPath>
    <clipPath id="clip-path-4">
      <path id="Path_657" data-name="Path 657" d="M73.5,37.5h9.377V65.622H73.5ZM50.058,0V28.125L59.433,37.5h0L53.6,68.583l6.485,6.427L50.7,84.37,45.375,112.5,36,121.875V150H73.5V121.875L64.123,112.5,68.81,84.375H87.56L92.247,112.5l-9.375,9.375,0,28.125h37.507l-.007-28.125L111,112.5l-5.243-28.125-9.387-9.363,6.441-6.445L94.472,24.281l-3.2-17.006L89.9,0Z" transform="translate(-36)" fill="url(#linear-gradient)"/>
    </clipPath>
    <clipPath id="clip-path-5">
      <path id="Path_658" data-name="Path 658" d="M161.5,37.5h9.377V65.622H161.5ZM138.058,0V28.125L147.43,37.5h0L141.6,68.583l6.485,6.427L138.7,84.37l-5.323,28.13L124,121.875V150h37.5V121.875l-9.375-9.375,4.688-28.125h18.748l4.69,28.125-9.377,9.375,0,28.125h37.507l-.007-28.125L199,112.5,193.75,84.375l-9.384-9.363,6.441-6.445-8.334-44.285-3.2-17.006L177.9,0Z" transform="translate(-124)" fill="url(#linear-gradient)"/>
    </clipPath>
    <clipPath id="clip-path-6">
      <path id="Path_659" data-name="Path 659" d="M108.125,37.5H136.25l0,9.375,0,9.363-9.368,9.387H108.127ZM80,0V28.127L89.375,37.5V65.627L98.75,75l-9.375,9.375V112.5L80,121.875V150l37.5,0v-28.12l-9.375-9.373V84.375h18.75l9.375,9.377v56.236l28.125.012V121.875L155,112.5V84.375L145.625,75,155,65.627V9.377L145.625,0Z" transform="translate(-80)" fill="url(#linear-gradient)"/>
    </clipPath>
    <clipPath id="clip-path-7">
      <path id="Path_660" data-name="Path 660" d="M28.125,37.5H56.25l0,9.375,0,9.363-9.368,9.387H28.127ZM0,0V28.127L9.375,37.5V65.627L18.75,75,9.375,84.375V112.5L0,121.875V150l37.5,0v-28.12L28.125,112.5V84.375H56.247L75,65.627V9.377L65.625,0Z" fill="url(#linear-gradient)"/>
    </clipPath>
    <clipPath id="clip-path-8">
      <path id="Path_661" data-name="Path 661" d="M300.141,37.5h28.116v75.011H300.141ZM272,0V28.13l9.4,9.375V65.636l9.373,9.375L281.4,84.386v28.092l-9.4,9.415V150h65.627L347,140.646V9.377L337.627,0Z" transform="translate(-272)" fill="url(#linear-gradient)"/>
    </clipPath>
    <clipPath id="clip-path-9">
      <path id="Path_662" data-name="Path 662" d="M192,0V56.25h9.375l9.375-9.375V37.5h9.375V65.625L229.5,75l-9.375,9.375V112.5l-9.375,9.375V150h37.5V121.875l-9.375-9.375V84.375L229.5,75l9.375-9.375V37.5h9.375v9.375l9.375,9.375H267V0Z" transform="translate(-192)" fill="url(#linear-gradient)"/>
    </clipPath>
  </defs>
  <g id="Rectangle_1636" data-name="Rectangle 1636" fill="#fff" stroke="#707070" stroke-width="1" opacity="0">
    <rect width="1231" height="319" stroke="none"/>
    <rect x="0.5" y="0.5" width="1230" height="318" fill="none"/>
  </g>
  <text id="POR_UMA_NOITE" data-name="POR UMA NOITE" transform="translate(614.5 128.5)" fill="#ffcb8f" font-size="100" font-family="UbuntuMono-Bold, Ubuntu Mono" font-weight="700"><tspan x="-325" y="0">POR UMA NOITE</tspan></text>
  <g id="Group_2882" data-name="Group 2882" transform="translate(165.001 123.5)">
    <g id="Group_2865" data-name="Group 2865" transform="translate(543.748)">
      <g id="Group_2864" data-name="Group 2864" clip-path="url(#clip-path)">
        <rect id="Rectangle_1286" data-name="Rectangle 1286" width="75" height="150" transform="translate(-0.237 -0.001)" fill="url(#linear-gradient)"/>
      </g>
    </g>
    <g id="Group_2867" data-name="Group 2867" transform="translate(824.997)">
      <g id="Group_2866" data-name="Group 2866" clip-path="url(#clip-path-2)">
        <rect id="Rectangle_1287" data-name="Rectangle 1287" width="75" height="150" transform="translate(-0.486 -0.001)" fill="url(#linear-gradient)"/>
      </g>
    </g>
    <g id="Group_2869" data-name="Group 2869" transform="translate(731.248)">
      <g id="Group_2868" data-name="Group 2868" clip-path="url(#clip-path-3)">
        <rect id="Rectangle_1288" data-name="Rectangle 1288" width="76" height="150" transform="translate(-0.736 -0.001)" fill="url(#linear-gradient)"/>
      </g>
    </g>
    <g id="Group_2871" data-name="Group 2871" transform="translate(84.375)">
      <g id="Group_2870" data-name="Group 2870" clip-path="url(#clip-path-4)">
        <rect id="Rectangle_1289" data-name="Rectangle 1289" width="85" height="150" transform="translate(-0.863 -0.001)" fill="url(#linear-gradient)"/>
      </g>
    </g>
    <g id="Group_2873" data-name="Group 2873" transform="translate(290.624)">
      <g id="Group_2872" data-name="Group 2872" clip-path="url(#clip-path-5)">
        <rect id="Rectangle_1290" data-name="Rectangle 1290" width="84" height="150" transform="translate(-0.112 -0.001)" fill="url(#linear-gradient)"/>
      </g>
    </g>
    <g id="Group_2875" data-name="Group 2875" transform="translate(187.499)">
      <g id="Group_2874" data-name="Group 2874" clip-path="url(#clip-path-6)">
        <rect id="Rectangle_1291" data-name="Rectangle 1291" width="84" height="150" transform="translate(0.012 -0.001)" fill="url(#linear-gradient)"/>
      </g>
    </g>
    <g id="Group_2877" data-name="Group 2877">
      <g id="Group_2876" data-name="Group 2876" clip-path="url(#clip-path-7)">
        <rect id="Rectangle_1292" data-name="Rectangle 1292" width="75" height="150" transform="translate(-0.488 -0.001)" fill="url(#linear-gradient)"/>
      </g>
    </g>
    <g id="Group_2879" data-name="Group 2879" transform="translate(637.498)">
      <g id="Group_2878" data-name="Group 2878" clip-path="url(#clip-path-8)">
        <rect id="Rectangle_1293" data-name="Rectangle 1293" width="75" height="150" transform="translate(0.014 -0.001)" fill="url(#linear-gradient)"/>
      </g>
    </g>
    <g id="Group_2881" data-name="Group 2881" transform="translate(449.999)">
      <g id="Group_2880" data-name="Group 2880" clip-path="url(#clip-path-9)">
        <rect id="Rectangle_1294" data-name="Rectangle 1294" width="74" height="150" transform="translate(0.513 -0.001)" fill="url(#linear-gradient)"/>
      </g>
    </g>
  </g>
</svg>
